<?xml version="1.0" encoding="utf-8"?>
<!-- Generator: Adobe Illustrator 25.4.1, SVG Export Plug-In . SVG Version: 6.00 Build 0)  -->
<svg version="1.1" id="Layer_1" xmlns="http://www.w3.org/2000/svg" xmlns:xlink="http://www.w3.org/1999/xlink" x="0px" y="0px"
	 viewBox="0 0 741.9 69.6" style="enable-background:new 0 0 741.9 69.6;" xml:space="preserve">
<style type="text/css">
	.st0{fill-rule:evenodd;clip-rule:evenodd;fill:#FFFFFF;}
	.st1{filter:url(#Adobe_OpacityMaskFilter);}
	.st2{mask:url(#mask-2_00000067194953457310049560000009970419005216943005_);fill-rule:evenodd;clip-rule:evenodd;fill:#00F092;}
</style>
<g id="Logo-Presentation">
	<g id="Slide-1-Copy-23" transform="translate(-194.000000, -546.000000)">
		<g id="Group-10" transform="translate(194.000000, 546.500000)">
			<path id="Fill-1" class="st0" d="M497.6,38.9h-9.4l7.9-15l8,15H497.6z M492.2,15.6l-19.8,37.5h8.3l3.6-6.7h23.8l3.6,6.7h8.3
				l-19.9-37.5H492.2L492.2,15.6z"/>
			<polyline id="Fill-2" class="st0" points="557.8,42.2 557.7,42.1 533.8,15.6 525.3,15.6 525.3,53.1 532.7,53.1 532.7,25.1 
				532.8,25.2 557.9,53.1 565.2,53.1 565.2,15.6 557.8,15.6 557.8,42.2 			"/>
			<path id="Fill-3" class="st0" d="M702.5,33.6h-18.7V23h18.7c1.4,0,2.7,0.6,3.7,1.6l0,0c1,1,1.5,2.3,1.5,3.7s-0.5,2.7-1.5,3.7
				C705.2,33.1,703.9,33.6,702.5,33.6z M706.9,40.3l0.5-0.2c2.3-1,4.2-2.6,5.5-4.6c1.4-2.1,2.2-4.6,2.2-7.1c0-3.4-1.3-6.6-3.7-9
				c-2.4-2.5-5.5-3.8-8.9-3.8h-26v37.5h7.3V41h13.9l0,0l10.5,12.1h9.8L706.9,40.3L706.9,40.3z"/>
			<polyline id="Fill-4" class="st0" points="459.8,30.6 434.9,30.6 434.9,15.6 427.5,15.6 427.5,53.1 434.9,53.1 434.9,38.1 
				459.8,38.1 459.8,53.1 467.1,53.1 467.1,15.6 459.8,15.6 459.8,30.6 			"/>
			<polyline id="Fill-5" class="st0" points="318.6,15.6 315.1,15.6 303.2,42.8 291.2,15.6 287.7,15.6 287.7,15.6 280.7,15.6 
				280.7,53.1 288.2,53.1 288.2,25.7 300.2,53.1 306.1,53.1 318.2,25.6 318.2,53.1 325.6,53.1 325.6,15.6 318.6,15.6 318.6,15.6 			
				"/>
			<g id="Group-9" transform="translate(0.000000, 0.008595)">
				<g id="Clip-7">
				</g>
				<path id="Fill-6" class="st0" d="M252.6,38.9L252.6,38.9h-9.4l7.9-15l8,15H252.6z M247.2,15.6l-19.8,37.5h8.3l3.6-6.7h23.8
					l3.6,6.7h8.3l-19.9-37.5H247.2L247.2,15.6z"/>
				<path id="Fill-8" class="st0" d="M199.2,36.9v0.4H218v0.1c-1.4,4.8-5.8,8.2-10.8,8.2h-10c-6.1,0-11.1-5-11.2-11.1
					c-0.1-3,1.1-5.9,3.2-8c2.2-2.2,5.2-3.5,8.2-3.5h9.1c4,0,7.3-3,7.8-7v-0.4h-17.2c-5,0-9.7,2-13.3,5.6c-3.5,3.6-5.4,8.4-5.3,13.4
					c0.2,10.2,8.6,18.5,18.9,18.5h9.5h0.1c10.1-0.1,18.5-8.4,18.7-18.5c0-0.1,0-0.2,0-0.2c0-0.1,0-0.1,0-0.2v-0.1l0,0v-4.2H207
					C203,29.9,199.6,32.9,199.2,36.9"/>
			</g>
			<path id="Fill-10" class="st0" d="M594.4,36.9v0.4h18.8v0.1c-1.4,4.8-5.8,8.2-10.8,8.2h-10c-6.1,0-11.1-5-11.2-11.1
				c-0.1-3,1.1-5.9,3.2-8c2.2-2.2,5.2-3.5,8.2-3.5h9.1c4,0,7.3-3,7.8-7v-0.4h-17.1c-5,0-9.7,2-13.3,5.6c-3.5,3.6-5.4,8.4-5.4,13.4
				c0.2,10.2,8.6,18.5,18.9,18.5h9.5h0.1c10.2-0.1,18.6-8.4,18.7-18.4c0-0.1,0-0.2,0-0.2c0-0.1,0-0.1,0-0.2v-0.1l0,0V30h-18.7
				C598.1,30,594.8,33,594.4,36.9"/>
			<path id="Fill-11" class="st0" d="M398,23h13.7c4,0,7.3-3,7.8-7v-0.4H398c-5,0-9.7,2-13.3,5.6c-3.5,3.6-5.4,8.4-5.4,13.4
				c0.2,10.2,8.6,18.5,18.9,18.5h13.4c4,0,7.3-3,7.8-7v-0.4h-21.3c-3.1,0-6.1-1.3-8.2-3.5s-3.3-5-3.2-8C386.9,28,391.9,23,398,23"/>
			<path id="Fill-12" class="st0" d="M367.1,23c4,0,7.3-3,7.7-7v-0.4h-38.6v37.5h30.9c4,0,7.3-3,7.7-7v-0.4h-31.3v-7.6h14
				c3.8,0,7-3.1,7-7v-0.5h-20.9V23H367.1"/>
			<path id="Fill-13" class="st0" d="M660.4,23c4,0,7.3-3,7.7-7v-0.4h-38.6v37.5h30.9c4,0,7.3-3,7.7-7v-0.4h-31.3v-7.6h13.9
				c3.8,0,7-3.1,7-7v-0.5h-20.9V23H660.4"/>
			<polyline id="Fill-14" class="st0" points="728.9,53.1 727.5,53.1 727.5,45.6 724.9,45.6 724.9,44.3 731.4,44.3 731.4,45.6 
				728.9,45.6 728.9,53.1 			"/>
			<path id="Fill-15" class="st0" d="M736.8,53.1l-2.5-7.2l0,0c0,1.1,0.1,2.1,0.1,3.1v4.2h-1.2v-8.7h1.9l2.4,6.9l0,0l2.5-6.9h1.9
				v8.7h-1.4v-4.3c0-0.4,0-1,0-1.7s0-1.1,0-1.2l0,0l-2.6,7.2H736.8"/>
		</g>
	</g>
</g>
<g id="Logo-Presentation_00000113341718855537428600000001450668188223146168_">
	<g id="Slide-1-Copy-23_00000093891632931889047450000011681990669367062677_" transform="translate(-551.000000, -849.000000)">
		<g id="DSG_GameChanger_Logomark-Copy-7" transform="translate(551.000000, 849.000000)">
			<g id="Clip-2">
			</g>
			<defs>
				<filter id="Adobe_OpacityMaskFilter" filterUnits="userSpaceOnUse" x="0" y="0" width="142.9" height="69.6">
					<feColorMatrix  type="matrix" values="1 0 0 0 0  0 1 0 0 0  0 0 1 0 0  0 0 0 1 0"/>
				</filter>
			</defs>
			
				<mask maskUnits="userSpaceOnUse" x="0" y="0" width="142.9" height="69.6" id="mask-2_00000067194953457310049560000009970419005216943005_">
				<g class="st1">
					<polygon id="path-1_00000010310054758688279420000011862642130963442847_" class="st0" points="0,0 142.9,0 142.9,69.6 0,69.6 
											"/>
				</g>
			</mask>
			<path id="Fill-1_00000052789438335131278620000014152493238395228080_" class="st2" d="M104.9,55.5c-2.9,0-5.8-0.7-8.4-1.9
				c-2.5-1.2-4.8-3-6.7-5.2c-1.8-2.2-3.2-4.8-4-7.5c-0.8-2.9-1-6-0.6-9c1.2-8.3,7.4-15.2,15.5-17.2c0.5-0.1,3.2-0.6,6.7-0.6l22.4,0
				c0.1,0,3.1,0,5.8-1.3c4.4-2.5,7.2-7.3,7.2-12.4V0h-38C89,0,75.3,10.9,71.5,26.5c0,0.1,0,0.1,0,0.2l0,0.1H50.7
				c-7.5,0-13.7,6-14,13.6l0,0.5h33l0,0c0,0.2-0.1,0.5-0.2,0.8c-2.3,6.8-8.1,12.1-15.1,13.9c0,0-2.9,0.7-6.8,0.6H37
				c-3.6,0-6.2-0.5-6.7-0.6c-9.1-2.3-15.6-10.4-15.7-19.8c0-1.1,0-2.4,0.2-3.7c1.2-8.3,7.4-15.3,15.5-17.3c0.5-0.1,3.2-0.6,6.7-0.6
				l11.4,0c0.2,0,4,0,7-1.9c3.9-2.7,6.2-7.1,6.2-11.8V0H34.4C15.7,0,0.3,15.3,0,34.2c-0.2,9.2,3.3,18,9.9,24.7
				c6.6,6.8,15.8,10.7,25.1,10.7h15.7c10.6,0,20.7-5.1,27.2-13.6c6.7,8.5,16.9,13.6,27.6,13.6h23.4c7.5,0,13.7-6,14-13.6l0-0.5
				H104.9"/>
		</g>
	</g>
</g>
</svg>
